<?xml version="1.0" encoding="UTF-8" standalone="no"?>
<!-- Created with Inkscape (http://www.inkscape.org/) -->

<svg
   xmlns:dc="http://purl.org/dc/elements/1.1/"
   xmlns:cc="http://creativecommons.org/ns#"
   xmlns:rdf="http://www.w3.org/1999/02/22-rdf-syntax-ns#"
   xmlns:svg="http://www.w3.org/2000/svg"
   xmlns="http://www.w3.org/2000/svg"
   xmlns:sodipodi="http://sodipodi.sourceforge.net/DTD/sodipodi-0.dtd"
   xmlns:inkscape="http://www.inkscape.org/namespaces/inkscape"
   width="110mm"
   height="110mm"
   viewBox="0 0 110 110"
   version="1.1"
   id="svg8"
   sodipodi:docname="drawing.svg"
   inkscape:version="0.92.4 (unknown)">
  <defs
     id="defs2" />
  <sodipodi:namedview
     id="base"
     pagecolor="#ffffff"
     bordercolor="#666666"
     borderopacity="1.0"
     inkscape:pageopacity="0.0"
     inkscape:pageshadow="2"
     inkscape:zoom="1.910385"
     inkscape:cx="177.62196"
     inkscape:cy="176.3353"
     inkscape:document-units="mm"
     inkscape:current-layer="layer5"
     showgrid="false"
     inkscape:window-width="1440"
     inkscape:window-height="836"
     inkscape:window-x="1280"
     inkscape:window-y="27"
     inkscape:window-maximized="1" />
  <metadata
     id="metadata5">
    <rdf:RDF>
      <cc:Work
         rdf:about="">
        <dc:format>image/svg+xml</dc:format>
        <dc:type
           rdf:resource="http://purl.org/dc/dcmitype/StillImage" />
        <dc:title />
      </cc:Work>
    </rdf:RDF>
  </metadata>
  <g
     inkscape:groupmode="layer"
     id="layer5"
     inkscape:label="subsub"
     style="display:inline">
    <path
       style="fill:#000000;fill-opacity:1;fill-rule:evenodd;stroke:#000000;stroke-width:0.26458332px;stroke-linecap:butt;stroke-linejoin:miter;stroke-opacity:1"
       d="m 9.0023301,95.734768 c 0,0 0.2259644,-6.57104 1.1821489,-9.282208 8.607454,-24.405587 11.764232,-29.945857 21.531421,-41.2931 5.519716,-6.41265 14.662409,-11.332538 20.936869,-13.988235 6.27446,-2.655697 11.420144,-2.74686 15.349446,-3.104311 6.95503,-0.632704 12.030249,1.88544 16.223882,4.320064 4.075117,2.365819 6.8978,6.656688 7.712404,10.958095 1.228716,6.48807 2.026651,15.046305 -1.638205,22.335762 -1.328111,2.641633 -8.465049,10.033354 -12.464765,15.234714 -3.123937,4.06247 -3.382698,5.299293 -4.016425,8.309842 -0.808819,3.84233 -0.738995,5.235997 0.415491,11.772279 -3.033009,-4.491382 -8.261613,-7.920699 -14.403726,-9.556322 -5.248047,-1.397536 -11.984315,0.07059 -17.866164,0.138499 -6.182718,0.07138 -8.658189,-1.717865 -11.910774,-4.431916 -4.37085,-3.647163 -6.356314,-10.067948 -8.235674,-15.072454 -4.229738,5.865996 -7.553028,12.579499 -7.553028,12.579499 z"
       id="path3741"
       inkscape:connector-curvature="0"
       sodipodi:nodetypes="csszsssssscsssccc" />
  </g>
  <g
     inkscape:groupmode="layer"
     id="layer4"
     inkscape:label="sub"
     style="display:inline">
    <path
       transform="translate(0,-187)"
       style="display:inline;fill:#c6afe9;fill-rule:evenodd;stroke:#000000;stroke-width:0.76499999;stroke-linecap:butt;stroke-linejoin:miter;stroke-miterlimit:4;stroke-dasharray:none;stroke-opacity:1"
       d="m 25.760514,240.21607 c 0,0 1.800467,0.0693 3.877927,1.73122 2.077461,1.66197 4.916655,4.32804 4.916655,4.32804 l 4.466543,-3.94718 c 0,0 -0.639556,-3.25375 -0.519364,-8.62145 0.140474,-6.27353 2.825215,-9.07878 2.825215,-9.07878 0,0 -6.841641,5.06234 -9.057598,7.5553 -2.665169,2.49295 -6.790403,8.03285 -6.509378,8.03285 z"
       id="path4534"
       inkscape:connector-curvature="0"
       sodipodi:nodetypes="csccsccc" />
    <path
       transform="translate(0,-187)"
       style="display:inline;fill:#0000d4;fill-rule:evenodd;stroke:#000000;stroke-width:0.76499999;stroke-linecap:butt;stroke-linejoin:miter;stroke-miterlimit:4;stroke-dasharray:none;stroke-opacity:1"
       d="m 41.32749,224.62792 c -0.03054,-0.15268 -1.999964,2.63347 -2.546244,6.26768 -0.685527,2.93798 0.240393,11.43255 0.240393,11.43255 l 4.65623,-3.59795 c 0,0 1.586778,-5.32122 6.446739,-9.67156 4.572149,-4.0927 7.732957,-6.21904 13.572044,-7.79402 5.397269,-1.03134 8.068343,-0.56765 10.087041,-0.30565 2.937973,0.39172 6.129177,1.71034 6.129177,1.71034 0,0 -2.742107,-2.93798 -5.582147,-4.30903 -0.857174,-0.54218 -1.748858,-0.94044 -2.365664,-1.18287 0,0 -1.799946,-1.19468 -3.478101,-1.47535 0.13551,-0.13551 -6.9608,0.36519 -12.602333,1.79567 -7.032546,2.0452 -14.596319,6.45132 -14.557135,7.13022 z"
       id="path4532"
       inkscape:connector-curvature="0"
       sodipodi:nodetypes="ccccsccccscccc" />
    <path
       transform="translate(0,-187)"
       style="display:inline;fill:#5599ff;fill-rule:evenodd;stroke:#000000;stroke-width:0.66500002;stroke-linecap:butt;stroke-linejoin:miter;stroke-miterlimit:4;stroke-dasharray:none;stroke-opacity:1"
       d="m 39.021638,242.32815 c 0,0 4.072147,10.33644 3.704805,8.55221 -1.696593,-8.24058 1.400002,-12.08631 0.346244,-11.35678 z"
       id="path3713"
       inkscape:connector-curvature="0"
       sodipodi:nodetypes="cssc" />
    <path
       transform="translate(0,-187)"
       style="display:inline;fill:#3771c8;fill-rule:evenodd;stroke:#000000;stroke-width:0.565;stroke-linecap:butt;stroke-linejoin:miter;stroke-miterlimit:4;stroke-dasharray:none;stroke-opacity:1"
       d="m 34.555097,246.27533 13.295751,13.74586 c 0,0 -10.491833,-16.27492 -8.829209,-17.69304 z"
       id="path4520"
       inkscape:connector-curvature="0"
       sodipodi:nodetypes="ccsc" />
    <path
       transform="translate(0,-187)"
       style="display:inline;fill:#ff7f2a;fill-rule:evenodd;stroke:#000000;stroke-width:0.76499999;stroke-linecap:butt;stroke-linejoin:miter;stroke-miterlimit:4;stroke-dasharray:none;stroke-opacity:1"
       d="m 88.846073,224.91211 c 2.008213,13.365 -1.727741,15.37668 -1.727741,15.37668 l 4.082196,-4.22764 c 0,0 1.653133,-2.99119 0.276995,-6.23239 -1.463663,-3.44733 -2.63145,-4.91665 -2.63145,-4.91665 z"
       id="path4526"
       inkscape:connector-curvature="0"
       sodipodi:nodetypes="cccsc" />
    <path
       transform="translate(0,-187)"
       style="display:inline;fill:#aa87de;fill-rule:evenodd;stroke:#000000;stroke-width:0.86500001;stroke-linecap:butt;stroke-linejoin:miter;stroke-miterlimit:4;stroke-dasharray:none;stroke-opacity:1"
       d="m 43.677869,238.7302 c 0,0 1.698547,-5.5234 6.855269,-9.98911 5.155195,-4.46438 8.868209,-6.70294 14.347103,-7.63873 4.660821,-0.79607 12.892123,-0.33435 15.228495,2.25245 7.173162,7.94202 1.022884,18.66707 -1.860716,23.40585 0,0 2.815557,-8.69151 1.664851,-11.77638 -1.297604,-4.72524 -4.040459,-5.58598 -4.040459,-5.58598 0,0 -2.961709,-1.75895 -8.886623,-0.55928 -4.935514,0.99934 -12.601903,3.75096 -16.648514,6.07181 z"
       id="path4530"
       inkscape:connector-curvature="0"
       sodipodi:nodetypes="cssscccssc" />
    <path
       transform="translate(0,-187)"
       style="display:inline;fill:#ff5555;fill-rule:evenodd;stroke:#000000;stroke-width:0.76499999;stroke-linecap:butt;stroke-linejoin:miter;stroke-miterlimit:4;stroke-dasharray:none;stroke-opacity:1"
       d="m 68.694704,215.70203 c 0,0 8.725334,3.32394 11.495283,6.92487 2.769947,3.60093 3.788149,9.63097 2.769947,13.71124 -1.344408,5.38748 -5.401397,11.77228 -7.063367,13.98824 -1.66197,2.21596 -7.478858,7.89435 -7.478858,7.89435 0,0 8.027081,-2.15979 14.26523,-10.8028 3.102384,-4.29838 4.435393,-7.12914 4.435393,-7.12914 l 1.381498,-2.42717 c 0,0 2.354453,-9.97182 0.346242,-12.94951 -2.008212,-2.97769 -5.071955,-5.91974 -9.642371,-7.44321 -4.570412,-1.52347 -10.508997,-1.76687 -10.508997,-1.76687 z"
       id="path4528"
       inkscape:connector-curvature="0"
       sodipodi:nodetypes="cssscsccssc" />
  </g>
  <g
     inkscape:groupmode="layer"
     id="layer2"
     inkscape:label="Layer 2"
     style="display:inline">
    <path
       style="fill:#ffd42a;fill-rule:evenodd;stroke:#000000;stroke-width:0.75999999;stroke-linecap:round;stroke-linejoin:miter;stroke-miterlimit:4;stroke-dasharray:none;stroke-opacity:1"
       d="m 87.118333,53.288796 c -3.116191,4.570415 -2.053342,6.007102 -1.111458,7.890871 1.177227,2.354456 3.197374,2.779324 4.606057,3.234406 1.815687,0.586566 3.710746,1.376571 4.680226,4.70051 0.820114,2.811823 -0.08605,7.320923 -0.08605,7.320923 0,0 3.110672,-5.255344 3.456914,-8.856276 0.245324,-2.551369 0.508505,-8.860351 -2.95393,-14.538746 -3.462435,-5.678392 -5.821811,-3.214122 -8.591759,0.248312 z"
       id="path4616"
       inkscape:connector-curvature="0"
       sodipodi:nodetypes="cssscssc" />
  </g>
  <g
     inkscape:groupmode="layer"
     id="layer3"
     inkscape:label="Layer 3"
     style="display:inline">
    <path
       style="display:inline;fill:#7f2aff;fill-rule:evenodd;stroke:#000000;stroke-width:0.76499999;stroke-linecap:butt;stroke-linejoin:miter;stroke-miterlimit:4;stroke-dasharray:none;stroke-opacity:1"
       d="m 47.6431,44.490735 c -7.894349,10.110308 -5.124403,17.866164 -3.877927,20.913105 1.246476,3.046942 7.478861,14.126734 19.11264,8.448342 C 74.511592,68.173787 77.988025,61.211399 80.882473,55.155033 83.967078,48.700781 84.52733,38.191073 79.079125,35.657625 74.118785,33.351037 70.695122,33.419458 64.955274,34.062867 56.435043,35.017944 47.905968,43.268831 47.6431,44.490735 Z"
       id="path4597"
       inkscape:connector-curvature="0"
       sodipodi:nodetypes="csssssc" />
    <path
       style="display:inline;fill:#ff0000;fill-rule:evenodd;stroke:#000000;stroke-width:0.565;stroke-linecap:butt;stroke-linejoin:miter;stroke-miterlimit:4;stroke-dasharray:none;stroke-opacity:1"
       d="m 43.28614,52.415722 c 0,0 -0.783461,2.154516 -0.783461,4.406961 0,2.252446 0.587595,9.401514 4.211095,13.318813 3.623501,3.917296 6.071812,6.267675 13.318813,4.504891 7.246998,-1.762784 9.989108,-4.700757 11.164297,-5.875946 1.17519,-1.175189 4.994556,-5.484217 6.267675,-7.63873 1.273122,-2.154515 3.231772,-8.715989 2.74211,-11.360163 -0.489662,-2.644177 -1.273122,-7.149068 -4.994555,-7.834595 -3.721434,-0.685528 -11.066365,0.391728 -13.220881,1.175189 -2.154512,0.78346 -10.282903,3.6235 -13.514675,5.680083 -3.231771,2.056579 -5.190418,3.623497 -5.190418,3.623497 z"
       id="path4594"
       inkscape:connector-curvature="0"
       sodipodi:nodetypes="csssssssssc" />
    <path
       style="display:inline;fill:#ff0066;fill-rule:evenodd;stroke:#000000;stroke-width:0.76499999;stroke-linecap:butt;stroke-linejoin:miter;stroke-miterlimit:4;stroke-dasharray:none;stroke-opacity:1"
       d="m 46.517909,56.724751 c -1.511671,5.391313 1.281755,9.99908 3.427634,12.143623 2.094788,2.093484 6.266234,5.014057 14.494002,3.721433 8.289946,-1.302393 11.751895,-8.298853 13.318813,-11.164297 1.278167,-2.337402 2.74211,-8.299776 2.448311,-10.870502 L 79.91287,47.98428 78.933547,45.364587 c 0.289359,0.145555 0.174468,3.063882 -1.163817,4.09927 -1.276188,0.987347 -4.412756,1.236396 -5.818069,0.434308 -3.52096,-2.0096 -3.404894,-3.375189 -4.672076,-3.84805 -1.297573,-0.484202 -5.05216,-0.359144 -8.030458,0.78346 -2.799343,1.073949 -5.589106,2.249662 -8.813919,4.504892 -2.846487,1.990652 -3.917299,5.386284 -3.917299,5.386284 z"
       id="path4547"
       inkscape:connector-curvature="0"
       sodipodi:nodetypes="cssssccsssssc" />
    <path
       style="display:inline;fill:#cd87de;fill-rule:evenodd;stroke:#000000;stroke-width:0.75999999;stroke-linecap:butt;stroke-linejoin:miter;stroke-miterlimit:4;stroke-dasharray:none;stroke-opacity:1"
       d="m 49.65131,51.761846 c -7.132614,6.647873 -1.922449,16.504904 1.038733,17.658417 4.907779,1.911799 9.438809,-1.115736 13.780488,-6.647875 4.29342,-5.470648 5.539895,-11.426034 0.553989,-14.749972 -5.87199,-3.914661 -14.195981,2.562201 -15.37321,3.73943 z"
       id="path4614"
       inkscape:connector-curvature="0"
       sodipodi:nodetypes="csssc" />
    <path
       style="display:inline;fill:#00ffff;fill-rule:evenodd;stroke:#000000;stroke-width:0.76499999;stroke-linecap:butt;stroke-linejoin:miter;stroke-miterlimit:4;stroke-dasharray:none;stroke-opacity:1"
       d="m 69.47502,43.646109 c -3.942708,5.024946 6.411338,9.724129 9.124352,4.498527 2.272194,-4.376527 -6.092168,-9.144131 -9.124352,-4.498527 z"
       id="path4612"
       inkscape:connector-curvature="0"
       sodipodi:nodetypes="csc" />
    <path
       style="display:inline;fill:#000000;fill-rule:evenodd;stroke:#000000;stroke-width:0.1;stroke-linecap:butt;stroke-linejoin:miter;stroke-miterlimit:4;stroke-dasharray:none;stroke-opacity:1"
       d="m 71.228635,48.055498 c 2.019602,1.537311 5.817658,1.688024 6.541096,-0.211004 0.422009,-2.0196 0.06029,-2.984186 -2.411464,-4.491351 -2.532036,-1.235876 -4.039202,-0.331576 -4.822927,0.72344 -0.783727,1.055015 -0.482293,3.165046 0.693295,3.978915 z"
       id="path3797"
       inkscape:connector-curvature="0"
       sodipodi:nodetypes="ccccc" />
    <path
       style="display:inline;fill:#333333;fill-rule:evenodd;stroke:#333333;stroke-width:0.26458332px;stroke-linecap:butt;stroke-linejoin:miter;stroke-opacity:1"
       d="m 71.891789,44.317729 c -1.440916,2.344632 1.834669,2.82337 2.697824,1.446878 0.371713,-1.20948 -1.86077,-2.357391 -2.697824,-1.446876 z"
       id="path4606"
       inkscape:connector-curvature="0"
       sodipodi:nodetypes="cccc" />
    <path
       style="display:inline;fill:#cccccc;fill-rule:evenodd;stroke:#cccccc;stroke-width:0.26458332px;stroke-linecap:butt;stroke-linejoin:miter;stroke-opacity:1"
       d="m 72.509726,44.815093 c -0.36172,0.813869 1.235876,1.235876 1.446879,0.437078 0.211002,-0.798798 -1.205733,-1.10023 -1.446879,-0.437078 z"
       id="path4610"
       inkscape:connector-curvature="0" />
    <path
       style="display:inline;fill:#80ffb3;fill-rule:evenodd;stroke:#000000;stroke-width:0.76499999;stroke-linecap:round;stroke-linejoin:miter;stroke-miterlimit:4;stroke-dasharray:none;stroke-opacity:1"
       d="M 24.189313,55.157831 C 24.052889,54.748561 18.444052,65.508284 16.06092,70.533225 13.149434,76.672225 7.7919304,94.289763 8.7159872,93.057687 8.707613,93.12468 13.192062,82.515656 20.46788,73.275335 26.810513,65.220163 32.807367,60.544117 32.807367,60.544117 30.4165,58.477097 27.593815,56.464625 24.189313,55.157831 Z"
       id="path4618"
       inkscape:connector-curvature="0"
       sodipodi:nodetypes="cscscc" />
    <path
       style="display:inline;fill:#80ffb3;fill-rule:evenodd;stroke:#000000;stroke-width:0.76499999;stroke-linecap:butt;stroke-linejoin:miter;stroke-miterlimit:4;stroke-dasharray:none;stroke-opacity:1"
       d="m 24.514037,54.878038 c 0,0 -5.187606,9.678455 -2.354455,17.035179 2.715428,7.051037 6.156672,20.127079 22.436576,18.766397 5.94399,-0.496801 16.198587,-0.967212 22.436576,3.254688 3.062444,2.072675 5.955387,3.877927 5.955387,3.877927 0,0 0.310601,-8.032848 0.172104,-6.370881 -0.138498,1.66197 0.658881,-4.570412 0.658881,-4.570412 0,0 -11.356784,-1.246477 -17.866164,-6.509378 C 45.132254,73.142306 35.466334,61.769835 24.514037,54.878038 Z"
       id="path4602"
       inkscape:connector-curvature="0"
       sodipodi:nodetypes="cssscsccc" />
    <path
       style="display:inline;fill:#bcd35f;fill-rule:evenodd;stroke:#000000;stroke-width:0.76499999;stroke-linecap:butt;stroke-linejoin:miter;stroke-miterlimit:4;stroke-dasharray:none;stroke-opacity:1"
       d="m 22.017997,71.610481 c 0,0 1.337448,5.116249 3.836167,7.834596 3.0944,3.366386 10.046603,6.669489 14.885732,7.442866 8.277882,1.32295 27.696292,-0.561147 27.029354,-0.78346 0,0 -10.184974,-2.937973 -16.256786,-8.42219 -6.071812,-5.484217 -18.80303,-17.040244 -18.80303,-17.040244 z"
       id="path4605"
       inkscape:connector-curvature="0"
       sodipodi:nodetypes="csscscc" />
    <path
       transform="translate(0,-187)"
       style="display:inline;fill:#00ccff;fill-rule:evenodd;stroke:#000000;stroke-width:0.76499999;stroke-linecap:butt;stroke-linejoin:miter;stroke-miterlimit:4;stroke-dasharray:none;stroke-opacity:1"
       d="m 32.962379,247.55643 c 0,0 -3.860568,6.12406 0,12.46477 3.819815,6.27377 10.861,9.99876 19.805125,10.94129 6.069709,0.63963 12.154165,1.20591 12.154165,1.20591 0,0 -9.509988,-3.56444 -18.622977,-12.3193 -6.221194,-5.97671 -13.336313,-12.29267 -13.336313,-12.29267 z"
       id="path4611"
       inkscape:connector-curvature="0"
       sodipodi:nodetypes="csscsc" />
    <path
       style="display:inline;fill:#80e5ff;fill-rule:evenodd;stroke:#000000;stroke-width:0.76499999;stroke-linecap:round;stroke-linejoin:miter;stroke-miterlimit:4;stroke-dasharray:none;stroke-opacity:1"
       d="m 32.807369,60.642049 c 0,0 -0.222462,4.724763 3.917296,10.282905 4.916227,6.600649 13.432782,10.101488 16.45265,11.066367 5.069327,1.619702 11.556029,3.035906 11.556029,3.035906 C 60.726505,84.157243 51.306876,77.381858 46.713774,73.471198 41.798335,69.286094 32.590937,60.685335 32.807369,60.642049 Z"
       id="path4615"
       inkscape:connector-curvature="0"
       sodipodi:nodetypes="csscsc" />
    <path
       style="display:inline;fill:#afe9c6;fill-rule:evenodd;stroke:#000000;stroke-width:0.76499999;stroke-linecap:butt;stroke-linejoin:miter;stroke-miterlimit:4;stroke-dasharray:none;stroke-opacity:1"
       d="m 24.776908,55.157832 c -2.260456,4.550453 -4.326458,10.10168 -2.448311,16.452649 2.30883,-3.280801 9.52775,-10.096703 10.576703,-10.968432 -2.535308,-2.089306 -5.224,-3.948536 -8.128392,-5.484217 z"
       id="path4621"
       inkscape:connector-curvature="0"
       sodipodi:nodetypes="cccc" />
    <path
       style="display:inline;fill:#ccaaff;fill-rule:evenodd;stroke:#000000;stroke-width:0.76499999;stroke-linecap:butt;stroke-linejoin:miter;stroke-miterlimit:4;stroke-dasharray:none;stroke-opacity:1"
       d="M 49.553816,73.373266 C 75.727438,95.374455 81.243509,76.409646 84.809495,56.822685 82.622743,66.617267 57.028943,80.599578 49.553816,73.373266 Z"
       id="path4624"
       inkscape:connector-curvature="0"
       sodipodi:nodetypes="ccc" />
    <path
       style="display:inline;fill:#8d5fd3;fill-rule:evenodd;stroke:#000000;stroke-width:0.76499999;stroke-linecap:butt;stroke-linejoin:miter;stroke-miterlimit:4;stroke-dasharray:none;stroke-opacity:1"
       d="M 50.729004,74.254658 C 66.899511,90.399121 82.799404,74.128679 85.201224,57.116482 80.136366,68.68928 58.517247,78.592356 50.729004,74.254658 Z"
       id="path4627"
       inkscape:connector-curvature="0"
       sodipodi:nodetypes="ccc" />
  </g>
</svg>
